<svg xmlns="http://www.w3.org/2000/svg" xmlns:xlink="http://www.w3.org/1999/xlink" width="156" zoomAndPan="magnify" viewBox="0 0 116.88 30.000001" height="40" preserveAspectRatio="xMidYMid meet" version="1.0"><defs><g/></defs><g fill="#000000" fill-opacity="1"><g transform="translate(12.674499, 22.112915)"><g><path d="M 1.59375 0 L 1.59375 -17.890625 L 7.09375 -17.890625 C 8.664062 -17.890625 10.070312 -17.535156 11.3125 -16.828125 C 12.5625 -16.117188 13.53125 -15.109375 14.21875 -13.796875 C 14.914062 -12.492188 15.265625 -11.007812 15.265625 -9.34375 L 15.265625 -8.53125 C 15.265625 -6.863281 14.921875 -5.382812 14.234375 -4.09375 C 13.554688 -2.800781 12.59375 -1.796875 11.34375 -1.078125 C 10.101562 -0.367188 8.703125 -0.0078125 7.140625 0 Z M 5.28125 -14.90625 L 5.28125 -2.953125 L 7.0625 -2.953125 C 8.5 -2.953125 9.597656 -3.421875 10.359375 -4.359375 C 11.128906 -5.304688 11.519531 -6.660156 11.53125 -8.421875 L 11.53125 -9.359375 C 11.53125 -11.179688 11.15625 -12.5625 10.40625 -13.5 C 9.65625 -14.4375 8.550781 -14.90625 7.09375 -14.90625 Z M 5.28125 -14.90625 "/></g></g></g><g fill="#000000" fill-opacity="1"><g transform="translate(29.021967, 22.112915)"><g><path d="M 12.359375 -7.75 L 5.28125 -7.75 L 5.28125 -2.953125 L 13.578125 -2.953125 L 13.578125 0 L 1.59375 0 L 1.59375 -17.890625 L 13.5625 -17.890625 L 13.5625 -14.90625 L 5.28125 -14.90625 L 5.28125 -10.640625 L 12.359375 -10.640625 Z M 12.359375 -7.75 "/></g></g></g><g fill="#000000" fill-opacity="1"><g transform="translate(43.17094, 22.112915)"><g><path d="M 8 -11.71875 L 11.34375 -17.890625 L 15.59375 -17.890625 L 10.375 -9.015625 L 15.71875 0 L 11.4375 0 L 8 -6.265625 L 4.5625 0 L 0.265625 0 L 5.609375 -9.015625 L 0.40625 -17.890625 L 4.640625 -17.890625 Z M 8 -11.71875 "/></g></g></g><g fill="#000000" fill-opacity="1"><g transform="translate(59.149945, 22.112915)"><g><path d="M 1.546875 -1.75 C 1.546875 -2.3125 1.734375 -2.765625 2.109375 -3.109375 C 2.492188 -3.460938 2.972656 -3.640625 3.546875 -3.640625 C 4.128906 -3.640625 4.609375 -3.460938 4.984375 -3.109375 C 5.367188 -2.765625 5.5625 -2.3125 5.5625 -1.75 C 5.5625 -1.1875 5.375 -0.726562 5 -0.375 C 4.625 -0.03125 4.140625 0.140625 3.546875 0.140625 C 2.960938 0.140625 2.484375 -0.03125 2.109375 -0.375 C 1.734375 -0.726562 1.546875 -1.1875 1.546875 -1.75 Z M 1.546875 -1.75 "/></g></g></g><g fill="#000000" fill-opacity="1"><g transform="translate(66.457791, 22.112915)"><g><path d="M 0.8125 -6.765625 C 0.8125 -8.085938 1.0625 -9.265625 1.5625 -10.296875 C 2.070312 -11.328125 2.804688 -12.125 3.765625 -12.6875 C 4.722656 -13.25 5.832031 -13.53125 7.09375 -13.53125 C 8.882812 -13.53125 10.347656 -12.984375 11.484375 -11.890625 C 12.617188 -10.796875 13.25 -9.304688 13.375 -7.421875 L 13.40625 -6.515625 C 13.40625 -4.472656 12.832031 -2.832031 11.6875 -1.59375 C 10.550781 -0.363281 9.023438 0.25 7.109375 0.25 C 5.191406 0.25 3.660156 -0.363281 2.515625 -1.59375 C 1.378906 -2.820312 0.8125 -4.492188 0.8125 -6.609375 Z M 4.359375 -6.515625 C 4.359375 -5.253906 4.59375 -4.285156 5.0625 -3.609375 C 5.539062 -2.941406 6.222656 -2.609375 7.109375 -2.609375 C 7.972656 -2.609375 8.644531 -2.9375 9.125 -3.59375 C 9.601562 -4.257812 9.84375 -5.316406 9.84375 -6.765625 C 9.84375 -8.003906 9.601562 -8.960938 9.125 -9.640625 C 8.644531 -10.316406 7.96875 -10.65625 7.09375 -10.65625 C 6.21875 -10.65625 5.539062 -10.316406 5.0625 -9.640625 C 4.59375 -8.972656 4.359375 -7.929688 4.359375 -6.515625 Z M 4.359375 -6.515625 "/></g></g></g><g fill="#000000" fill-opacity="1"><g transform="translate(80.680457, 22.112915)"><g><path d="M 8.828125 -9.96875 C 8.347656 -10.03125 7.921875 -10.0625 7.546875 -10.0625 C 6.210938 -10.0625 5.332031 -9.609375 4.90625 -8.703125 L 4.90625 0 L 1.359375 0 L 1.359375 -13.296875 L 4.71875 -13.296875 L 4.8125 -11.703125 C 5.53125 -12.921875 6.519531 -13.53125 7.78125 -13.53125 C 8.164062 -13.53125 8.53125 -13.476562 8.875 -13.375 Z M 8.828125 -9.96875 "/></g></g></g><g fill="#000000" fill-opacity="1"><g transform="translate(89.855181, 22.112915)"><g><path d="M 0.84375 -6.75 C 0.84375 -8.78125 1.328125 -10.414062 2.296875 -11.65625 C 3.273438 -12.90625 4.585938 -13.53125 6.234375 -13.53125 C 7.691406 -13.53125 8.820312 -13.03125 9.625 -12.03125 L 9.78125 -13.296875 L 13 -13.296875 L 13 -0.4375 C 13 0.71875 12.734375 1.722656 12.203125 2.578125 C 11.671875 3.441406 10.925781 4.097656 9.96875 4.546875 C 9.007812 5.003906 7.890625 5.234375 6.609375 5.234375 C 5.628906 5.234375 4.675781 5.035156 3.75 4.640625 C 2.832031 4.253906 2.132812 3.753906 1.65625 3.140625 L 3.234375 0.984375 C 4.117188 1.972656 5.191406 2.46875 6.453125 2.46875 C 7.390625 2.46875 8.117188 2.210938 8.640625 1.703125 C 9.171875 1.203125 9.4375 0.488281 9.4375 -0.4375 L 9.4375 -1.140625 C 8.613281 -0.210938 7.535156 0.25 6.203125 0.25 C 4.609375 0.25 3.316406 -0.375 2.328125 -1.625 C 1.335938 -2.875 0.84375 -4.53125 0.84375 -6.59375 Z M 4.390625 -6.484375 C 4.390625 -5.285156 4.628906 -4.34375 5.109375 -3.65625 C 5.597656 -2.96875 6.265625 -2.625 7.109375 -2.625 C 8.191406 -2.625 8.96875 -3.03125 9.4375 -3.84375 L 9.4375 -9.4375 C 8.957031 -10.25 8.191406 -10.65625 7.140625 -10.65625 C 6.285156 -10.65625 5.613281 -10.304688 5.125 -9.609375 C 4.632812 -8.910156 4.390625 -7.867188 4.390625 -6.484375 Z M 4.390625 -6.484375 "/></g></g></g></svg>